<?xml version="1.0" standalone="no"?>
<!DOCTYPE svg PUBLIC "-//W3C//DTD SVG 20010904//EN"
 "http://www.w3.org/TR/2001/REC-SVG-20010904/DTD/svg10.dtd">
<svg version="1.0" xmlns="http://www.w3.org/2000/svg"
 width="288.000000pt" height="312.000000pt" viewBox="0 0 288.000000 312.000000"
 preserveAspectRatio="xMidYMid meet">

<g transform="translate(0.000000,312.000000) scale(0.100000,-0.100000)"
fill="#000000" stroke="none">
<path d="M1280 3003 c-58 -7 -169 -43 -255 -83 -113 -53 -232 -160 -324 -294
-39 -56 -102 -132 -140 -169 -43 -41 -72 -77 -76 -96 -3 -16 -17 -40 -30 -53
-13 -13 -62 -61 -109 -108 -86 -85 -86 -85 -86 -136 0 -38 -6 -61 -25 -88 -13
-20 -45 -79 -70 -132 l-46 -96 17 -43 c14 -39 15 -48 1 -97 -8 -29 -17 -76
-20 -105 -3 -29 -13 -65 -21 -82 -23 -44 -20 -69 14 -107 16 -18 31 -48 34
-66 2 -18 10 -70 16 -115 7 -45 9 -86 6 -92 -14 -22 8 -63 44 -86 29 -18 43
-38 58 -77 11 -29 30 -73 41 -98 11 -25 21 -59 21 -75 0 -43 25 -73 70 -85 26
-7 49 -23 67 -46 16 -20 42 -54 60 -75 17 -21 34 -54 38 -71 13 -64 30 -78 90
-78 49 0 59 -4 105 -43 27 -23 65 -55 84 -70 19 -15 37 -41 41 -56 3 -16 15
-37 25 -46 19 -17 22 -17 71 4 l51 23 70 -26 c91 -34 143 -33 228 4 38 16 76
30 85 30 9 0 47 -13 85 -30 84 -37 133 -38 229 -5 l72 25 50 -21 c47 -21 50
-21 69 -4 10 9 22 30 25 46 4 17 23 43 47 62 22 17 60 49 84 70 40 33 51 37
99 37 44 0 57 4 69 22 9 12 16 32 16 44 0 11 10 35 23 52 12 17 38 53 56 79
42 59 59 72 89 73 34 0 72 43 72 80 0 18 13 62 29 98 16 37 33 80 36 95 4 15
18 36 32 45 67 47 66 46 68 113 5 125 22 220 44 248 40 49 46 69 32 104 -7 18
-17 52 -23 77 -5 25 -16 77 -24 115 -14 63 -14 74 0 113 l16 43 -47 97 c-26
53 -57 112 -70 131 -16 24 -23 48 -23 83 0 46 -4 52 -62 116 -34 37 -78 80
-98 95 -34 27 -70 80 -70 103 0 6 -37 46 -82 90 -53 50 -98 105 -123 149 -77
134 -245 274 -407 339 -110 43 -306 65 -448 49z m107 -223 c8 -21 20 21 23 80
2 42 2 43 10 15 4 -16 11 -47 15 -68 8 -51 22 -38 30 28 10 73 25 70 25 -5 0
-33 4 -60 9 -60 4 0 16 27 25 60 9 33 19 60 21 60 2 0 4 -28 4 -61 0 -69 6
-83 20 -48 5 13 16 40 24 59 15 35 15 35 10 -32 -3 -38 -3 -68 0 -68 4 0 20
26 37 58 17 31 28 46 25 32 -3 -14 -8 -45 -11 -70 -8 -52 -1 -49 46 25 17 28
29 42 26 31 -16 -47 -28 -107 -23 -112 2 -3 21 18 42 46 20 27 38 50 40 50 4
0 -33 -97 -46 -122 -16 -29 -4 -21 51 35 l51 52 -25 -52 c-38 -77 -32 -83 24
-28 58 57 63 52 19 -17 -17 -27 -29 -51 -26 -55 4 -3 26 11 51 31 24 20 47 36
51 36 3 0 -15 -27 -41 -61 l-47 -61 24 -21 23 -22 -19 24 c-15 18 -17 25 -7
28 7 3 36 20 63 39 28 19 53 34 56 34 3 0 -16 -23 -42 -51 -26 -28 -45 -53
-42 -55 3 -3 29 7 59 23 77 41 78 40 21 -12 -29 -25 -53 -51 -53 -56 0 -5 21
0 48 10 37 15 46 23 44 39 -2 11 2 23 9 27 8 5 9 1 4 -14 -5 -16 -2 -21 11
-21 12 0 2 -11 -26 -32 l-44 -33 -551 -2 -550 -2 -53 35 c-30 20 -52 37 -49
40 2 2 30 -7 61 -22 32 -14 60 -23 64 -19 4 4 -15 27 -43 51 -51 44 -55 58 -9
28 13 -9 27 -14 31 -11 3 4 -2 9 -11 13 -9 3 -16 11 -16 17 0 5 9 2 20 -8 11
-10 17 -21 15 -26 -6 -9 34 -23 43 -15 3 4 -14 27 -39 53 -24 25 -38 42 -30
38 8 -4 17 -2 22 6 4 7 11 10 16 6 4 -5 1 -12 -6 -17 -10 -6 -3 -14 28 -30 24
-12 44 -20 46 -18 2 2 -15 28 -38 58 -24 32 -32 49 -20 40 11 -8 42 -30 68
-49 36 -25 50 -30 58 -22 9 9 8 11 -3 7 -14 -6 -21 3 -75 89 l-19 30 30 -25
c16 -13 44 -38 62 -55 37 -34 36 -28 -12 65 l-28 55 51 -50 c56 -54 61 -51 31
21 -11 26 -19 48 -17 50 2 2 19 -16 37 -41 19 -25 37 -45 42 -45 11 0 11 -2
-12 64 -22 65 -14 65 27 1 15 -25 32 -45 36 -45 9 0 0 60 -15 99 -17 45 -1 31
27 -24 16 -30 33 -55 38 -55 9 0 3 69 -10 115 -10 37 13 2 31 -47 27 -72 38
-70 34 5 -3 75 2 75 27 -1 9 -28 21 -50 26 -46 5 3 9 33 10 67 l0 62 15 -55
c8 -30 17 -62 21 -70z m-422 -120 c3 -5 2 -10 -4 -10 -5 0 -13 5 -16 10 -3 6
-2 10 4 10 5 0 13 -4 16 -10z m925 6 c0 -3 -4 -8 -10 -11 -5 -3 -10 -1 -10 4
0 6 5 11 10 11 6 0 10 -2 10 -4z m85 -85 c-3 -6 -11 -11 -17 -11 -6 0 -6 6 2
15 14 17 26 13 15 -4z m-1167 -36 c-3 -3 -9 2 -12 12 -6 14 -5 15 5 6 7 -7 10
-15 7 -18z m-13 -55 c7 -12 -2 -12 -30 0 -19 8 -19 9 2 9 12 1 25 -3 28 -9z
m1305 1 c0 -8 -61 -22 -69 -15 -1 1 0 7 4 13 8 13 65 15 65 2z m-1387 -14 c4
3 7 1 7 -5 0 -7 -4 -12 -10 -12 -5 0 -10 -5 -10 -10 0 -21 -43 -100 -67 -125
-20 -19 -29 -23 -39 -14 -19 15 -18 45 4 90 20 46 37 51 29 9 -4 -16 -3 -30 2
-30 13 0 22 30 16 51 -8 25 31 64 49 50 7 -6 16 -8 19 -4z m62 -7 c3 -5 2 -10
-4 -10 -5 0 -13 5 -16 10 -3 6 -2 10 4 10 5 0 13 -4 16 -10z m1393 -3 c6 -6
12 -27 14 -46 2 -19 9 -36 17 -39 10 -3 11 3 6 27 -4 20 -3 31 4 31 6 0 11 -7
11 -15 0 -9 7 -27 16 -40 18 -28 12 -75 -11 -75 -17 0 -49 44 -76 105 -11 25
-25 45 -32 45 -15 0 13 20 29 20 6 0 16 -6 22 -13z m-73 -116 c18 -56 52 -94
110 -123 22 -11 41 -22 43 -23 1 -1 -11 -42 -27 -91 -16 -49 -34 -129 -40
-179 -17 -135 -20 -149 -15 -54 5 93 35 232 59 279 20 38 20 38 -17 53 -55 23
-95 64 -119 122 l-23 55 -648 0 -649 0 -14 -35 c-25 -58 -68 -100 -152 -150
-1 0 9 -34 23 -74 27 -77 54 -253 52 -336 0 -35 -3 -23 -9 40 -12 131 -27 210
-55 295 -29 84 -35 69 52 130 28 19 51 47 69 84 l27 56 658 0 658 0 17 -49z
m195 -20 c-15 -36 -6 -52 40 -71 17 -7 30 -16 30 -21 0 -5 9 -9 20 -9 22 0 31
-26 27 -79 -1 -22 3 -36 12 -39 10 -3 12 2 7 21 -3 14 -2 28 2 31 5 3 14 -18
21 -45 l13 -51 -41 -42 c-22 -23 -41 -47 -41 -54 0 -30 -20 -6 -54 67 l-37 79
26 57 c14 32 24 59 23 60 -2 1 -19 11 -39 23 -32 19 -35 25 -31 59 5 56 11 68
24 55 8 -8 8 -19 -2 -41z m-1732 -12 c3 -42 1 -47 -31 -64 l-34 -18 22 -56
c13 -31 20 -60 15 -66 -4 -5 -11 -21 -15 -35 -24 -80 -65 -149 -65 -107 0 6
-18 28 -41 47 l-41 36 7 57 c5 41 12 57 22 57 11 0 14 -7 11 -25 -3 -14 -2
-28 2 -30 13 -8 20 24 11 48 -12 30 4 67 28 67 11 0 23 5 26 10 4 6 22 17 42
25 31 13 35 19 31 42 -3 16 -9 36 -13 47 -6 14 -5 18 6 14 9 -3 15 -22 17 -49z
m1487 -45 c24 -50 41 -66 113 -110 2 -1 -3 -15 -11 -31 -26 -51 -46 -165 -58
-338 -13 -199 -7 -311 27 -519 35 -206 31 -305 -13 -399 -58 -122 -154 -192
-393 -287 -58 -23 -147 -60 -197 -82 l-93 -40 -202 82 c-112 46 -234 99 -272
118 -130 68 -217 172 -245 293 -16 66 -13 154 8 306 11 76 22 185 26 243 9
149 -11 462 -36 553 -28 102 -29 100 21 138 26 20 55 54 69 82 l23 47 603 0
603 0 27 -56z m-1701 -211 c37 -114 47 -235 30 -349 -6 -41 -8 -44 -23 -31 -9
8 -30 18 -47 21 -52 11 -72 38 -72 96 -1 54 17 66 28 19 4 -17 8 -20 14 -11 4
7 1 23 -8 37 -23 35 -21 76 4 82 11 3 20 11 20 17 0 7 11 23 25 36 31 29 32
64 4 84 -13 9 -19 21 -16 30 11 28 25 17 41 -31z m2182 33 c3 -8 -4 -24 -15
-35 -27 -27 -26 -43 4 -79 14 -17 25 -34 25 -40 0 -5 9 -12 20 -15 24 -6 27
-44 5 -73 -8 -10 -15 -27 -15 -37 0 -26 24 -16 28 11 7 44 21 20 16 -25 -8
-70 -8 -70 -73 -101 -46 -22 -61 -25 -65 -15 -17 42 -18 194 -2 272 24 117 56
179 72 137z m-1937 -136 c15 -68 14 -68 -11 -72 -13 -2 -21 -7 -18 -13 3 -5 7
-9 10 -8 3 1 14 5 24 9 17 7 17 4 -4 -24 -24 -32 -65 -48 -98 -37 -11 3 -31 1
-46 -4 -22 -9 -26 -8 -26 7 0 59 45 139 97 174 46 30 60 24 72 -32z m1734 19
c40 -33 70 -84 80 -134 l5 -30 -51 1 c-89 2 -94 3 -112 30 -18 28 -14 44 8 26
8 -7 17 -9 20 -5 14 13 6 23 -19 23 -19 0 -24 4 -20 18 2 9 8 33 11 52 13 62
23 64 78 19z m-166 -466 c-1 -54 -3 -12 -3 92 0 105 2 149 3 98 2 -51 2 -136
0 -190z m209 242 c56 -33 93 -96 101 -171 l6 -57 -24 16 c-13 9 -40 17 -61 17
-29 0 -45 7 -73 35 -19 20 -35 38 -35 40 0 11 29 4 40 -10 16 -19 30 -19 30
-1 0 7 -14 16 -30 20 -31 6 -51 32 -34 45 11 8 12 52 1 69 -5 7 -20 11 -34 10
-15 -2 -28 3 -31 11 -8 23 93 6 144 -24z m-1788 18 c-21 -2 -39 -7 -40 -11 -6
-27 -4 -69 4 -79 10 -12 -25 -43 -49 -43 -7 0 -13 -7 -13 -15 0 -19 5 -19 35
1 32 21 32 11 0 -31 -20 -26 -36 -34 -73 -40 -26 -4 -56 -12 -66 -17 -18 -10
-19 -7 -13 52 10 115 93 192 202 188 43 -1 45 -2 13 -5z m-353 -55 c51 -61 85
-138 111 -255 22 -102 22 -102 2 -92 -11 6 -34 8 -50 5 -63 -13 -73 -4 -115
102 -8 18 18 14 33 -5 7 -10 16 -14 20 -10 5 4 -6 21 -24 38 -34 32 -42 66
-16 76 8 3 13 11 11 17 -3 7 1 23 9 37 21 37 17 67 -11 85 -24 16 -34 44 -16
44 5 0 26 -19 46 -42z m2404 -6 l-32 -28 18 -37 c9 -20 15 -44 11 -52 -3 -9 0
-15 9 -15 25 0 18 -54 -10 -80 -25 -23 -33 -50 -16 -50 5 0 15 10 24 23 8 12
18 19 22 15 4 -4 0 -17 -9 -30 -9 -12 -16 -30 -16 -39 0 -27 -26 -41 -92 -49
-35 -4 -64 -6 -66 -5 -5 4 30 170 45 209 19 49 97 161 121 175 30 17 25 -7 -9
-37z m-1942 -174 c-1 -40 -3 -10 -3 67 0 77 1 110 3 73 2 -37 2 -100 0 -140z
m-145 -14 c-36 -16 -48 -35 -36 -61 4 -10 6 -24 5 -30 -1 -7 3 -13 9 -13 20 0
10 -30 -16 -46 -18 -12 -22 -20 -14 -28 8 -8 17 -4 31 14 17 20 19 21 14 5 -4
-11 -10 -30 -12 -42 -3 -13 -22 -33 -42 -45 -20 -11 -46 -30 -58 -41 l-22 -20
-11 27 c-17 45 -12 133 9 174 32 62 112 122 161 121 8 0 0 -7 -18 -15z m1815
-20 c19 -14 46 -44 61 -67 22 -34 27 -51 27 -106 0 -36 -3 -74 -7 -84 -8 -18
-9 -18 -35 1 -16 11 -38 22 -50 26 -27 9 -44 30 -59 72 -13 38 -3 45 20 13 8
-12 19 -18 26 -14 8 5 0 17 -22 36 -30 27 -32 30 -16 42 10 8 15 17 11 20 -3
4 -1 13 6 20 13 17 5 47 -13 47 -7 0 -21 7 -32 16 -18 15 -17 15 15 10 19 -4
50 -18 68 -32z m-1680 -121 c-2 -16 -4 -5 -4 22 0 28 2 40 4 28 2 -13 2 -35 0
-50z m1490 -35 c-2 -13 -4 -3 -4 22 0 25 2 35 4 23 2 -13 2 -33 0 -45z m-1947
-4 c57 -34 128 -113 181 -199 l50 -80 -28 -6 c-16 -4 -45 -14 -65 -23 -44 -19
-57 -15 -103 31 -40 40 -44 53 -15 53 11 0 20 -4 20 -10 0 -5 7 -10 16 -10 23
0 7 19 -31 34 -44 19 -64 54 -41 72 12 8 14 14 6 19 -7 5 -9 21 -5 47 8 46
-13 78 -51 78 -25 0 -39 14 -29 30 6 10 40 -2 95 -36z m2488 24 c-3 -7 -19
-16 -38 -19 -42 -9 -52 -25 -46 -76 4 -27 1 -43 -7 -47 -9 -3 -9 -7 1 -14 19
-13 11 -53 -13 -66 -54 -29 -65 -38 -59 -47 4 -7 12 -5 23 5 18 17 41 21 41 9
0 -14 -81 -93 -95 -93 -7 0 -35 9 -61 20 -26 12 -55 18 -67 14 -42 -13 82 176
157 239 52 43 123 80 138 71 7 -4 8 -3 4 4 -4 7 -1 12 9 12 9 0 15 -6 13 -12z
m-2041 -65 c-3 -10 -5 -2 -5 17 0 19 2 27 5 18 2 -10 2 -26 0 -35z m1521 -83
c0 -16 -3 -11 -9 15 -4 22 -8 51 -7 65 0 16 3 11 9 -15 4 -22 8 -51 7 -65z
m-1594 68 c-4 -7 -14 -21 -22 -31 -12 -13 -13 -23 -5 -40 26 -56 -8 -305 -40
-294 -22 7 -51 84 -55 143 -5 81 11 127 66 186 42 45 72 64 56 36z m1688 -25
c50 -53 70 -97 75 -168 3 -46 -1 -72 -19 -114 -13 -30 -28 -56 -34 -58 -17 -6
-34 44 -34 100 0 29 -5 81 -10 116 -6 45 -5 69 3 82 9 14 8 22 -4 36 -47 54
-28 58 23 6z m-1631 -72 c-42 -273 27 -441 229 -562 37 -22 159 -77 271 -123
112 -45 218 -90 234 -98 20 -11 36 -13 46 -8 9 5 105 46 215 90 109 45 233
100 276 122 179 93 260 212 278 408 l9 95 -4 -95 c-8 -222 -118 -358 -380
-468 -55 -23 -165 -69 -245 -103 -80 -34 -152 -61 -160 -61 -22 0 -421 166
-515 215 -106 55 -195 142 -237 234 -26 55 -32 85 -36 158 -4 83 16 305 25
278 3 -7 0 -44 -6 -82z m1546 -53 c-2 -13 -4 -5 -4 17 -1 22 1 32 4 23 2 -10
2 -28 0 -40z m-1870 -133 c27 -8 76 -32 109 -54 61 -40 177 -151 158 -151 -6
0 -31 -16 -55 -35 -50 -40 -80 -44 -116 -15 -14 11 -32 20 -39 20 -8 0 -14 7
-14 16 0 13 7 15 37 9 34 -6 36 -5 23 10 -9 10 -23 15 -38 12 -33 -6 -80 37
-63 57 8 10 7 17 -4 26 -8 7 -15 27 -15 45 0 41 -19 57 -62 53 -25 -2 -33 1
-36 16 -3 16 0 18 31 12 20 -4 57 -13 84 -21z m2293 3 c0 -6 -12 -8 -31 -4
-39 8 -79 -29 -79 -74 0 -16 -5 -30 -10 -30 -6 0 -8 -11 -4 -25 8 -32 -11 -55
-45 -55 -15 0 -36 -7 -47 -15 -18 -14 -16 -15 19 -9 51 9 47 -6 -13 -45 -54
-35 -64 -34 -123 15 -16 13 -35 24 -43 24 -27 0 -13 25 46 81 76 73 149 115
242 138 73 19 88 19 88 -1z m-1978 -326 c31 -11 81 -40 110 -65 l55 -44 -23
-26 c-12 -14 -29 -35 -37 -47 -8 -12 -23 -21 -33 -21 -38 0 -105 14 -111 23
-9 15 19 28 44 21 13 -3 23 -1 23 5 0 17 -28 22 -60 11 -39 -14 -85 11 -75 42
4 10 2 19 -4 19 -6 0 -19 17 -30 39 -24 47 -43 55 -81 36 -25 -13 -29 -13 -40
0 -13 16 -11 17 35 29 40 10 171 -3 227 -22z m1802 7 c18 -16 -2 -21 -38 -8
-41 15 -61 4 -83 -48 -7 -18 -18 -33 -24 -33 -5 0 -9 -6 -8 -12 5 -44 -26 -65
-72 -49 -30 10 -59 6 -59 -10 0 -5 15 -8 33 -7 46 4 44 -25 -3 -32 -20 -4 -41
-10 -48 -14 -22 -13 -52 5 -86 51 l-33 46 63 49 c35 27 76 53 91 59 59 23 246
29 267 8z m-559 -189 c-3 -5 -12 -10 -18 -10 -7 0 -6 4 3 10 19 12 23 12 15 0z
m-857 -45 l73 -17 -19 -22 c-11 -11 -30 -44 -42 -72 l-21 -52 -62 -4 c-34 -3
-66 -3 -70 -1 -14 8 15 33 39 33 13 0 24 5 24 10 0 15 -42 11 -64 -5 -38 -29
-86 -13 -86 28 0 10 -5 15 -11 11 -6 -3 -24 10 -41 30 -34 41 -59 45 -89 15
-20 -20 -49 -20 -49 1 0 13 48 34 123 55 65 18 194 14 295 -10z m1045 10 c106
-25 163 -54 136 -70 -6 -4 -21 2 -33 14 -34 32 -69 27 -100 -14 -15 -19 -32
-34 -39 -32 -7 1 -11 -4 -9 -12 8 -36 -47 -54 -84 -26 -22 17 -54 20 -54 5 0
-5 8 -10 19 -10 20 0 47 -25 34 -33 -4 -2 -35 -4 -68 -3 l-60 1 -31 64 c-17
35 -38 69 -47 76 -15 11 -12 14 25 24 130 35 213 39 311 16z m-745 -115 c41
-19 42 -20 42 -70 0 -53 -23 -90 -56 -90 -9 0 -29 -8 -45 -17 -15 -9 -31 -14
-34 -11 -9 9 6 38 20 38 7 0 18 7 25 15 10 13 9 15 -8 15 -11 0 -29 -11 -39
-23 -28 -36 -59 -50 -83 -37 -11 6 -20 18 -20 27 0 11 -3 13 -13 5 -9 -8 -21
-6 -42 8 -45 30 -81 26 -100 -10 -9 -18 -23 -30 -35 -30 -30 0 -24 13 23 57
56 52 126 93 207 120 80 27 103 28 158 3z m336 -4 c100 -38 236 -131 236 -162
0 -24 -24 -15 -45 19 -26 41 -51 44 -94 13 -26 -20 -38 -23 -48 -15 -10 9 -13
8 -13 -4 0 -21 -35 -40 -59 -32 -9 3 -27 19 -39 35 -13 17 -29 30 -37 30 -23
0 -18 -16 10 -28 24 -11 33 -36 17 -46 -5 -3 -21 4 -38 15 -16 10 -36 19 -45
19 -28 0 -48 33 -51 85 -3 49 -2 50 37 72 52 29 90 28 169 -1z"/>
<path d="M1770 2636 c0 -2 8 -10 18 -17 15 -13 16 -12 3 4 -13 16 -21 21 -21
13z"/>
<path d="M1476 2532 l-19 -27 24 22 c12 12 21 24 18 27 -2 2 -13 -8 -23 -22z"/>
<path d="M1555 2510 c-16 -17 -16 -20 -3 -15 9 4 19 13 22 21 7 19 2 18 -19
-6z"/>
<path d="M1376 2505 c-11 -8 -15 -15 -9 -15 6 0 16 7 23 15 16 19 11 19 -14 0z"/>
<path d="M831 2246 c-17 -40 -37 -58 -109 -102 -2 -1 6 -31 17 -67 47 -153 57
-519 21 -767 -28 -197 -24 -277 20 -366 56 -114 146 -179 380 -272 69 -28 154
-63 190 -80 l66 -29 54 24 c30 14 111 47 180 75 254 102 349 168 406 284 39
79 43 180 14 339 -33 186 -41 311 -29 475 12 176 24 256 49 326 l18 53 -33 19
c-36 22 -81 77 -87 107 -3 20 -12 20 -570 23 l-567 2 -20 -44z m994 10 c13
-11 7 -76 -7 -76 -6 0 -8 7 -4 15 3 8 1 15 -5 15 -6 0 -6 7 1 20 9 16 8 20 -5
20 -12 0 -15 -8 -13 -32 2 -17 -2 -33 -8 -35 -7 -2 -11 9 -10 29 2 49 23 67
51 44z m-810 -16 c5 -8 11 -7 21 1 9 7 14 8 14 1 0 -6 -5 -14 -10 -17 -8 -5
-7 -11 1 -21 6 -8 9 -18 5 -21 -4 -4 -11 -1 -17 7 -8 13 -10 13 -18 0 -6 -8
-13 -11 -18 -7 -4 5 -1 12 7 17 12 8 13 13 2 30 -7 11 -8 20 -3 20 6 0 13 -5
16 -10z m75 -9 c16 -30 13 -46 -5 -31 -13 11 -14 10 -9 -4 3 -9 1 -16 -5 -16
-6 0 -11 16 -11 35 0 39 14 46 30 16z m40 -16 c0 -19 -4 -35 -8 -35 -5 0 -9
16 -10 35 -1 19 3 35 8 35 6 0 10 -16 10 -35z m66 23 c5 -8 2 -9 -9 -5 -10 3
-17 2 -17 -3 0 -6 6 -10 13 -10 8 0 7 -3 -3 -10 -20 -12 -9 -21 18 -13 15 3
22 13 22 29 0 18 5 24 23 24 20 0 24 -5 24 -35 0 -44 -17 -46 -18 -2 l-1 32
-13 -31 c-11 -26 -20 -31 -49 -32 -35 -1 -36 0 -36 33 0 28 4 35 19 35 11 0
23 -5 27 -12z m104 -3 c0 -8 7 -15 16 -15 24 0 12 -35 -14 -38 -19 -3 -22 1
-22 32 0 20 5 36 10 36 6 0 10 -7 10 -15z m60 0 c0 -8 5 -15 10 -15 6 0 10 7
10 15 0 8 5 15 10 15 6 0 10 -16 10 -35 0 -19 -4 -35 -10 -35 -5 0 -10 7 -10
15 0 8 -4 15 -10 15 -5 0 -9 -5 -7 -11 1 -6 -3 -13 -8 -15 -7 -3 -11 10 -11
31 0 19 4 35 8 35 4 0 8 -7 8 -15z m80 -2 c0 -14 2 -14 20 2 20 18 20 17 20
-18 0 -21 -4 -37 -10 -37 -5 0 -10 7 -10 17 0 14 -2 14 -20 -2 -20 -18 -20
-17 -20 18 0 21 5 37 10 37 6 0 10 -7 10 -17z m81 -37 c5 -6 9 2 9 22 0 36 20
45 21 10 0 -13 2 -45 5 -73 3 -39 2 -46 -6 -32 -6 9 -8 22 -5 27 3 6 1 10 -5
10 -6 0 -10 -10 -8 -22 2 -11 -2 -23 -9 -25 -17 -6 -4 39 15 55 9 6 12 12 6
13 -5 1 -18 2 -28 3 -15 1 -20 8 -19 29 1 39 5 46 10 17 3 -14 9 -29 14 -34z
m69 39 c0 -8 7 -15 16 -15 24 0 12 -35 -14 -38 -19 -3 -22 1 -22 32 0 20 5 36
10 36 6 0 10 -7 10 -15z m60 -2 c1 -16 2 -16 15 1 8 11 18 16 22 12 4 -4 1
-11 -6 -15 -10 -7 -11 -13 -2 -30 14 -26 -3 -29 -18 -3 -10 16 -10 16 -11 0 0
-10 -4 -18 -10 -18 -5 0 -10 16 -10 35 0 35 20 51 20 18z m70 0 c1 -17 1 -17
14 0 19 24 23 22 24 -18 1 -19 -3 -35 -8 -35 -6 0 -10 7 -10 17 0 14 -2 14
-20 -2 -20 -18 -20 -17 -20 18 0 36 20 54 20 20z m-765 -98 c0 -14 -3 -25 -7
-25 -5 0 -8 9 -8 21 0 12 -4 17 -11 14 -6 -4 -8 -13 -5 -21 3 -8 1 -14 -4 -14
-6 0 -10 11 -10 25 0 19 5 25 23 25 17 0 22 -6 22 -25z m55 3 l9 -23 7 23 c9
32 34 28 33 -5 l-1 -28 -7 25 -7 25 -8 -23 c-4 -13 -13 -21 -21 -19 -7 3 -17
1 -22 -4 -14 -14 -35 14 -27 35 9 23 33 20 44 -6z m77 -15 c-3 -10 -5 -4 -5
12 0 17 2 24 5 18 2 -7 2 -21 0 -30z m103 28 c-1 -9 -26 -41 -33 -41 -3 0 -8
10 -10 23 l-4 22 -8 -22 c-4 -13 -12 -23 -17 -23 -6 0 -8 6 -5 14 3 7 1 18 -5
24 -8 8 2 11 35 10 26 0 47 -3 47 -7z m36 -8 c19 -26 18 -28 -19 -29 -17 -1
-24 1 -14 3 12 3 16 10 12 24 -8 24 3 25 21 2z m44 -8 c0 -14 -4 -25 -10 -25
-5 0 -10 11 -10 25 0 14 5 25 10 25 6 0 10 -11 10 -25z m30 0 c0 -14 -4 -25
-10 -25 -5 0 -10 11 -10 25 0 14 5 25 10 25 6 0 10 -11 10 -25z m30 0 c0 -14
-4 -25 -10 -25 -5 0 -10 11 -10 25 0 14 5 25 10 25 6 0 10 -11 10 -25z m30 13
c0 -9 4 -8 10 2 8 12 10 9 10 -13 0 -25 -2 -27 -20 -17 -21 11 -28 40 -10 40
6 0 10 -6 10 -12z m70 2 c7 12 10 8 10 -15 0 -23 -3 -27 -10 -15 -9 13 -11 13
-20 0 -7 -12 -10 -8 -10 15 0 23 3 27 10 15 9 -13 11 -13 20 0z m43 -10 c3
-11 1 -23 -4 -26 -5 -3 -9 6 -9 20 0 31 6 34 13 6z m27 -7 c-1 -24 -2 -26 -11
-10 -5 9 -7 22 -4 27 10 17 15 11 15 -17z m123 16 c9 6 12 3 12 -14 0 -16 -6
-22 -21 -22 -17 0 -20 4 -16 26 3 14 7 20 10 13 2 -8 8 -10 15 -3z m66 -3 c9
-11 8 -18 -5 -31 -15 -15 -18 -15 -32 -1 -13 12 -13 18 -2 30 15 20 24 20 39
2z m50 -13 l-1 -28 -8 25 c-5 16 -8 19 -9 8 -1 -9 -5 -19 -10 -22 -4 -3 -6 6
-3 19 6 35 32 32 31 -2z m56 18 c3 -6 -3 -14 -12 -20 -16 -9 -16 -10 5 -11 15
0 22 6 22 20 0 13 7 20 20 20 15 0 20 -7 20 -26 0 -15 4 -23 10 -19 6 4 8 16
4 28 -6 19 -5 20 9 9 8 -7 17 -9 19 -3 1 5 11 -1 20 -14 17 -22 17 -23 -10
-22 -15 0 -35 -3 -45 -8 -14 -6 -20 -2 -24 15 -6 23 -6 23 -14 3 -11 -30 -59
-20 -59 13 0 24 23 33 35 15z m135 -1 c0 -5 -5 -10 -11 -10 -5 0 -7 5 -4 10 3
6 8 10 11 10 2 0 4 -4 4 -10z m-1033 -107 c-3 -10 -5 -4 -5 12 0 17 2 24 5 18
2 -7 2 -21 0 -30z m29 22 c-3 -8 -1 -15 3 -15 5 0 12 8 15 17 6 15 8 15 16 3
15 -23 12 -26 -20 -28 -24 -2 -30 2 -30 18 0 11 5 20 11 20 6 0 9 -7 5 -15z
m61 -17 c-3 -7 -5 -2 -5 12 0 14 2 19 5 13 2 -7 2 -19 0 -25z m34 10 c1 -22 1
-22 10 2 l8 25 -2 -25 c-3 -31 -31 -33 -35 -2 -2 12 1 22 7 22 6 0 11 -10 12
-22z m69 3 c0 -11 -5 -23 -11 -27 -15 -9 -33 12 -26 30 9 23 37 20 37 -3z m50
1 c1 -16 1 -16 14 0 12 16 13 16 28 -2 17 -19 13 -34 -6 -23 -16 11 -60 9 -68
-2 -4 -5 -8 1 -8 15 0 19 6 26 20 27 13 1 20 -4 20 -15z m90 -1 c0 -30 -17
-34 -22 -6 -4 17 -1 25 8 25 8 0 14 -9 14 -19z m53 6 c3 13 5 11 6 -7 1 -20
-4 -25 -24 -26 -21 -2 -25 3 -25 24 0 24 1 24 19 8 18 -17 19 -17 24 1z m37 1
c0 -10 2 -10 8 -2 4 7 30 11 62 10 42 -1 56 -5 58 -17 5 -25 -25 -31 -41 -8
-14 20 -15 20 -21 -3 -5 -18 -8 -20 -15 -9 -6 9 -10 10 -16 2 -5 -9 -10 -9
-21 0 -11 9 -14 9 -14 0 0 -7 -4 -9 -10 -6 -5 3 -10 15 -10 26 0 10 5 19 10
19 6 0 10 -6 10 -12z m210 -8 c0 -11 -4 -20 -10 -20 -5 0 -10 7 -10 16 0 12
-4 11 -19 -7 l-18 -23 0 24 c0 20 5 25 28 27 23 2 29 -2 29 -17z m17 -17 c-3
-10 -5 -4 -5 12 0 17 2 24 5 18 2 -7 2 -21 0 -30z m33 17 c0 -11 -4 -20 -10
-20 -5 0 -10 9 -10 20 0 11 5 20 10 20 6 0 10 -9 10 -20z m38 -2 c-5 -32 -28
-35 -28 -4 0 17 5 26 16 26 10 0 14 -7 12 -22z m40 -1 c0 -13 -7 -24 -14 -24
-8 0 -14 11 -14 24 0 13 6 23 14 23 7 0 14 -10 14 -23z m69 11 c-9 -6 -9 -10
3 -17 8 -6 11 -13 7 -17 -4 -4 -16 1 -27 11 -11 10 -20 13 -20 7 0 -7 -4 -12
-10 -12 -5 0 -10 9 -10 19 0 15 7 19 35 18 21 -1 30 -4 22 -9z m47 1 c4 6 18
11 30 11 20 0 22 -4 17 -27 -5 -26 -6 -26 -9 -5 -2 12 -8 22 -13 22 -5 0 -9
-10 -10 -22 0 -13 -3 -18 -5 -11 -3 7 -12 9 -20 6 -10 -3 -14 2 -14 18 0 17 3
20 9 10 6 -9 11 -10 15 -2z m175 -11 c-12 -22 -27 -31 -25 -15 0 6 -3 13 -9
15 -5 1 -10 -2 -10 -7 0 -5 -3 -13 -7 -17 -5 -4 -8 2 -8 14 0 13 -6 22 -15 22
-8 0 -15 -7 -15 -16 0 -9 5 -12 12 -8 7 4 8 3 4 -4 -10 -17 -36 -3 -36 20 0
17 6 19 59 16 52 -2 58 -5 50 -20z m-901 -76 c2 -12 -1 -22 -7 -22 -6 0 -11 7
-11 15 0 8 -5 15 -11 15 -5 0 -7 5 -4 11 10 16 30 5 33 -19z m37 -12 c-12 -19
-25 -10 -25 16 0 23 1 24 16 10 8 -9 12 -20 9 -26z m40 15 c0 -26 -21 -30 -28
-6 -2 11 -2 22 1 26 11 10 27 -2 27 -20z m22 -12 c-3 -10 -5 -4 -5 12 0 17 2
24 5 18 2 -7 2 -21 0 -30z m113 26 c0 -4 7 -9 15 -13 8 -3 14 -2 14 2 -4 22 3
24 17 3 l17 -24 12 23 13 23 12 -22 c6 -13 8 -26 4 -29 -4 -4 -9 -1 -11 6 -3
6 -10 9 -16 5 -7 -4 -31 -8 -54 -9 -34 -2 -42 2 -46 18 -3 12 -10 17 -17 13
-7 -5 -8 -11 -1 -19 8 -9 2 -12 -24 -13 -27 -1 -35 3 -35 16 0 10 2 20 5 23 7
7 95 4 95 -3z m170 0 c0 -8 5 -7 15 1 13 11 19 9 36 -8 11 -12 23 -22 26 -22
4 0 2 5 -5 12 -16 16 -15 28 3 28 9 0 15 -9 15 -23 0 -21 -4 -23 -56 -24 -42
0 -54 3 -50 13 3 8 1 14 -4 14 -5 0 -11 -8 -13 -17 -3 -11 -5 -7 -6 10 -1 21
4 27 19 27 11 0 20 -5 20 -11z m120 -14 c0 -8 -4 -17 -10 -20 -6 -4 -10 5 -10
20 0 15 4 24 10 20 6 -3 10 -12 10 -20z m117 0 c0 -14 -7 -20 -23 -21 -13 -1
-24 2 -24 7 0 5 5 9 12 9 6 0 8 3 4 7 -4 5 -13 0 -21 -10 -12 -16 -13 -16 -20
5 l-8 23 -4 -22 c-6 -30 -19 -29 -25 1 -5 24 -3 24 52 23 51 -1 57 -4 57 -22z
m39 16 c11 9 14 7 14 -13 0 -17 -6 -24 -20 -24 -15 0 -20 7 -19 26 0 14 3 19
6 12 4 -10 8 -10 19 -1z m31 -28 c-3 -10 -5 -4 -5 12 0 17 2 24 5 18 2 -7 2
-21 0 -30z m68 13 c12 16 13 16 24 -4 8 -14 8 -22 1 -22 -5 0 -10 5 -10 11 0
8 -4 8 -12 2 -7 -5 -23 -10 -35 -11 -18 -1 -22 4 -19 21 3 12 5 24 5 27 1 2 8
-6 17 -18 15 -22 17 -22 29 -6z m-810 -6 c-3 -5 -10 -10 -16 -10 -5 0 -9 5 -9
10 0 6 7 10 16 10 8 0 12 -4 9 -10z m875 0 c0 -5 -4 -10 -9 -10 -6 0 -13 5
-16 10 -3 6 1 10 9 10 9 0 16 -4 16 -10z m-850 -10 c0 -5 -5 -10 -11 -10 -5 0
-7 5 -4 10 3 6 8 10 11 10 2 0 4 -4 4 -10z m369 -81 l23 -31 34 33 34 33 0
-99 c0 -89 -2 -101 -22 -123 -13 -13 -23 -36 -23 -50 0 -38 -29 -36 -33 3 -2
16 -15 40 -28 52 -23 21 -25 29 -23 118 1 52 5 95 8 95 4 0 18 -14 30 -31z
m-297 -97 c56 -31 61 -44 16 -35 l-33 6 44 -51 c23 -29 47 -54 52 -58 5 -3 9
-9 9 -15 0 -11 -40 -13 -40 -1 -1 4 -22 30 -47 57 l-46 50 6 -37 c3 -21 4 -38
1 -38 -5 0 -94 186 -94 196 0 3 19 -7 43 -21 23 -14 63 -38 89 -53z m751 -9
c-44 -95 -53 -106 -53 -67 0 28 -1 28 -53 -30 -29 -33 -58 -57 -64 -55 -7 2
15 34 48 71 l61 68 -34 -7 c-18 -3 -30 -3 -26 2 10 10 142 94 150 94 4 1 -9
-34 -29 -76z m-500 -159 c40 -9 73 -17 75 -19 1 -1 0 -10 -4 -19 -7 -17 -34
-22 -34 -6 0 6 -4 10 -10 10 -5 0 -10 -6 -10 -14 0 -21 -20 -30 -33 -17 -18
18 -27 13 -27 -14 0 -20 -5 -24 -22 -22 -19 2 -22 -2 -20 -20 3 -18 -2 -23
-17 -23 -24 0 -27 -10 -8 -29 10 -10 8 -15 -7 -26 -16 -12 -17 -17 -6 -30 10
-12 10 -19 2 -27 -17 -17 -15 -28 4 -28 12 0 14 -7 9 -30 -6 -26 -4 -30 14
-30 16 0 20 -6 18 -22 -2 -18 3 -23 21 -21 16 2 22 -2 22 -17 0 -22 16 -35 25
-20 10 16 22 11 28 -12 6 -21 7 -21 26 -4 19 17 21 17 27 2 16 -42 141 12 184
81 82 128 20 282 -132 328 l-43 13 45 12 c61 18 145 18 202 0 47 -14 54 -13
136 11 39 11 35 -27 -29 -270 -35 -133 -66 -247 -70 -252 -4 -6 -35 -9 -75 -8
-38 2 -167 3 -286 2 -197 -2 -217 -1 -222 15 -3 9 -33 124 -67 255 -44 169
-59 241 -51 249 7 7 25 7 61 -3 44 -11 59 -11 109 3 74 21 80 21 165 2z m135
-50 c19 -6 22 -11 17 -35 -4 -18 -2 -29 4 -29 6 0 11 5 11 12 0 6 11 1 25 -12
14 -13 28 -20 32 -16 5 4 -5 19 -20 32 -15 13 -24 24 -19 24 11 0 57 -49 69
-75 30 -59 22 -154 -15 -204 -21 -29 -79 -71 -96 -70 -6 0 3 7 21 16 40 20 48
38 17 39 -14 1 -24 -4 -24 -11 0 -8 -9 -17 -21 -20 -12 -4 -18 -12 -15 -21 3
-8 -1 -14 -9 -14 -10 0 -15 11 -15 33 0 27 6 36 39 54 37 21 71 73 71 108 0
35 -34 87 -71 108 -33 18 -39 27 -39 55 0 34 2 35 38 26z m14 -113 c28 -25 33
-36 33 -76 0 -40 -5 -51 -33 -76 -58 -52 -141 -33 -172 40 -16 39 -6 76 30
112 40 41 97 40 142 0z m370 -517 l17 -21 -44 5 -45 5 0 -42 c0 -22 -3 -41 -7
-40 -5 0 -36 34 -71 74 -54 64 -63 79 -60 107 3 31 6 33 48 38 44 5 46 4 95
-49 28 -30 58 -65 67 -77z m-682 88 c0 -31 -9 -48 -56 -102 -31 -36 -61 -66
-65 -68 -5 -2 -9 14 -9 35 l0 39 -42 -4 -43 -4 25 28 c89 103 103 114 147 114
l43 0 0 -38z m257 -49 l-5 -88 25 30 c29 34 29 35 -8 -92 -13 -46 -26 -83 -29
-83 -3 0 -20 45 -37 100 -30 99 -30 121 0 78 15 -22 16 -18 16 60 1 77 2 82
22 82 21 0 21 -3 16 -87z m-327 -205 c0 -6 6 -8 14 -5 8 3 20 0 26 -8 6 -8 18
-11 26 -8 7 3 17 -2 20 -11 3 -9 10 -13 15 -10 5 3 14 2 21 -2 8 -5 6 -11 -6
-19 -14 -11 -15 -13 -2 -18 9 -4 20 1 26 11 8 12 13 14 16 4 3 -6 10 -10 15
-6 12 7 11 -7 -2 -26 -7 -11 -12 -12 -15 -3 -3 7 -11 10 -19 7 -20 -8 -50 11
-50 32 0 9 -6 19 -14 22 -10 3 -11 -2 -6 -19 7 -23 7 -23 -12 -6 -11 9 -23 14
-27 10 -4 -5 -14 0 -21 11 -8 10 -18 16 -22 13 -5 -3 -15 -2 -22 2 -18 12 4
52 24 45 8 -4 15 -11 15 -16z m664 6 c7 -19 0 -34 -17 -34 -7 0 -6 4 3 10 13
8 12 10 -2 10 -18 0 -23 11 -11 23 11 11 20 8 27 -9z m-43 -47 c-10 -9 -15 -8
-27 7 -8 11 -14 25 -14 30 0 6 7 3 14 -6 18 -24 25 -22 20 5 l-5 22 12 -23
c10 -18 10 -25 0 -35z m-41 3 c7 -13 7 -20 1 -20 -6 0 -15 9 -21 20 -7 13 -7
20 -1 20 6 0 15 -9 21 -20z m-29 -6 c10 -13 10 -17 -2 -24 -13 -9 -26 6 -28
33 -2 12 16 8 30 -9z m-36 -15 c8 -25 -2 -39 -11 -15 -3 9 -12 16 -20 16 -17
0 -18 -26 -1 -34 6 -3 3 -5 -8 -3 -29 3 -31 35 -3 46 33 14 36 13 43 -10z
m-79 -18 c-4 -5 -1 -11 6 -13 14 -5 2 -28 -15 -28 -7 0 -6 4 3 10 13 8 12 10
-2 10 -18 0 -23 11 -11 23 10 10 25 8 19 -2z m-214 -14 c7 -8 18 -12 24 -10 6
2 16 -3 23 -10 16 -20 -14 -46 -31 -29 -7 7 -20 12 -29 12 -22 0 -31 13 -23
34 7 19 18 20 36 3z m188 -26 c0 -11 -4 -9 -16 5 -12 15 -15 16 -10 2 2 -9 -2
-22 -10 -29 -12 -10 -17 -8 -28 7 -17 22 -12 34 14 34 10 0 22 5 26 11 8 13
24 -7 24 -30z"/>
<path d="M1300 2199 c0 -5 5 -7 10 -4 6 3 10 8 10 11 0 2 -4 4 -10 4 -5 0 -10
-5 -10 -11z"/>
<path d="M980 2136 c0 -9 5 -16 10 -16 6 0 10 4 10 9 0 6 -4 13 -10 16 -5 3
-10 -1 -10 -9z"/>
<path d="M1660 2136 c0 -9 5 -16 10 -16 6 0 10 4 10 9 0 6 -4 13 -10 16 -5 3
-10 -1 -10 -9z"/>
<path d="M1065 2060 c-3 -5 -1 -10 4 -10 6 0 11 5 11 10 0 6 -2 10 -4 10 -3 0
-8 -4 -11 -10z"/>
<path d="M1420 2060 c0 -5 5 -10 11 -10 5 0 7 5 4 10 -3 6 -8 10 -11 10 -2 0
-4 -4 -4 -10z"/>
<path d="M1451 1984 c0 -11 3 -14 6 -6 3 7 2 16 -1 19 -3 4 -6 -2 -5 -13z"/>
<path d="M1562 1472 c-10 -7 -10 -18 0 -55 14 -55 33 -63 25 -12 -3 19 -2 35
3 35 4 0 6 9 3 20 -6 22 -11 24 -31 12z"/>
<path d="M1577 1329 c-4 -14 -10 -18 -18 -13 -9 5 -10 2 -6 -9 4 -11 2 -14 -9
-10 -20 8 -17 -10 5 -24 16 -10 20 -7 35 23 18 39 20 54 7 54 -5 0 -11 -9 -14
-21z"/>
<path d="M1350 1426 c0 -24 -5 -36 -17 -39 -14 -4 -12 -5 5 -6 19 -1 22 4 22
34 0 30 3 35 25 35 23 0 24 -3 27 -67 l3 -68 38 -3 c36 -3 37 -3 37 32 0 24 5
36 18 39 13 4 11 5 -5 6 -20 1 -23 -4 -23 -34 0 -31 -3 -35 -25 -35 -24 0 -25
2 -25 70 l0 70 -40 0 c-39 0 -40 -1 -40 -34z"/>
<path d="M1080 769 c0 -5 5 -7 10 -4 6 3 10 8 10 11 0 2 -4 4 -10 4 -5 0 -10
-5 -10 -11z"/>
<path d="M1120 750 c0 -5 5 -10 10 -10 6 0 10 5 10 10 0 6 -4 10 -10 10 -5 0
-10 -4 -10 -10z"/>
<path d="M1306 675 c-3 -8 -1 -15 4 -15 6 0 10 7 10 15 0 8 -2 15 -4 15 -2 0
-6 -7 -10 -15z"/>
<path d="M1350 654 c0 -8 5 -12 10 -9 6 3 10 10 10 16 0 5 -4 9 -10 9 -5 0
-10 -7 -10 -16z"/>
<path d="M1466 655 c4 -8 8 -15 10 -15 2 0 4 7 4 15 0 8 -4 15 -10 15 -5 0 -7
-7 -4 -15z"/>
</g>
</svg>
