<svg
  xmlns="http://www.w3.org/2000/svg"
  id="Text"
  x="0"
  y="0"
  version="1.1"
  viewBox="0 0 421.2 387.2"
>
  <path
    fill="var(--ql-color-accent1)"
    d="M10.6 199.8s2.3 70.9 61.5 118.2 141.3 50.7 207.7 55.2c66.4 4.5 117.5-33.1 125.2-90 7.7-56.9-43.1-73.5-70.6-138.3C306.8 80.2 309.3 59 251 19.2 192.7-20.6 101.6 3.8 53.8 72 6 140.2 10.6 199.8 10.6 199.8z"
  />
  <path
    fill="var(--ql-color-white)"
    d="M10.6 199.8s2.3 70.9 61.5 118.2 141.3 50.7 207.7 55.2c66.4 4.5 117.5-33.1 125.2-90 7.7-56.9-43.1-73.5-70.6-138.3C306.8 80.2 309.3 59 251 19.2 192.7-20.6 101.6 3.8 53.8 72 6 140.2 10.6 199.8 10.6 199.8z"
    opacity=".7"
  />
  <ellipse
    cx="299.5"
    cy="323.9"
    class="illustration-not-found-2"
    rx="70.2"
    ry="20.8"
  />
  <path
    d="M299.5 312.6c33.2 0 61 6.8 68.3 16 1.2-1.5 1.9-3.1 1.9-4.8 0-11.5-31.4-20.8-70.2-20.8s-70.2 9.3-70.2 20.8c0 1.6.7 3.3 1.9 4.8 7.3-9.1 35.1-16 68.3-16z"
    class="illustration-not-found-3"
  />
  <path
    d="M290 342.1c-23.4-1.1-41.1-5.9-41.1-11.6 0-.6.2-1.2.6-1.8M344.4 324.8c4 1.7 6.3 3.6 6.3 5.7 0 6.5-22.8 11.8-50.9 11.8h-1.2M255.7 324.5c8.8-3.5 25.3-5.9 44.1-5.9 12.1 0 23.2 1 31.9 2.6M289.3 334.5c-5.9-.8-9.9-2.3-9.9-4.1 0-2.6 9.1-4.7 20.4-4.7 11.3 0 20.4 2.1 20.4 4.7 0 2.2-6.7 4.1-15.7 4.6"
    class="illustration-not-found-4"
  />
  <path
    d="M17.6 240.2c30.6-8.7 95-25.9 130.6-27.2 47.8-1.7 128.5 33 178.9 39.1 50.4 6.1 84.2 4.3 84.2 4.3M.6 245.1s2.6-.8 7.3-2.2M397.7 191c-12.3-2.7-31.8-5.8-53.8-5.1-37.4 1.3-77.7 6.2-127.8 12.6-50 6.4-121.2-29.2-169.6-16-48.4 13.2-44.7 17.2-44.7 17.2M411.5 194.6s-1.9-.6-5.3-1.5"
    class="illustration-not-found-5"
  />
  <path
    d="M321.9 102.8a10.09 10.09 0 0 0-19.6 0h19.6zM420.6 102.8c-1.2-5-5.4-8.9-10.7-9.5a29.28 29.28 0 0 0-28.8-34.7c-14.4 0-26.4 10.4-28.8 24.1-3.2-2.5-7.2-4-11.5-4-10.3 0-18.7 8.4-18.7 18.7 0 1.8.3 3.6.8 5.3h97.7zM147.9 126.2c-.5-2.2-2.6-3.9-5-3.9s-4.4 1.7-5 3.9h10zM198.1 126.2c-.6-2.6-2.8-4.5-5.4-4.8.2-.9.3-1.8.3-2.7 0-8.2-6.6-14.8-14.8-14.8-7.3 0-13.4 5.3-14.6 12.2-1.6-1.3-3.6-2-5.8-2-5.2 0-9.5 4.3-9.5 9.5 0 .9.1 1.8.4 2.7h49.4z"
    class="illustration-not-found-5"
  />
  <path
    d="M193 141.9c-.3-1.4-1.6-2.5-3.1-2.5s-2.8 1-3.1 2.5h6.2zM224.7 141.9c-.4-1.6-1.7-2.9-3.4-3 .1-.6.2-1.1.2-1.7a9.39 9.39 0 0 0-18.6-1.7c-1-.8-2.3-1.3-3.7-1.3-3.3 0-6 2.7-6 6 0 .6.1 1.2.2 1.7h31.3z"
    class="illustration-not-found-5"
  />
  <path
    d="M125.7 253.9c-.3 0-.6-.1-.9-.3-.9-.5-1.2-1.7-.7-2.6.5-.8 120.7-131.9 175.7-180 .4-.3 1-.3 1.3.1.3.4.3 1-.1 1.3-54.8 48-173.2 179.7-173.7 180.6-.4.6-1 .9-1.6.9z"
    class="illustration-not-found-6"
  />
  <path
    d="M132.3 227.8s6-6.4 9.5-6.4c3.6 0 10.3 6 9.9 9.1-.4 3.2-6.4.4-6.4.4s-5.6 7.6-11.1 6.4c-5.5-1.1-1.9-9.5-1.9-9.5z"
    class="illustration-not-found-7"
  />
  <path
    d="M145.4 231s3.6 2.5 4 4.3c.3 1.8-4 6.8-8.9 7.9-4.9 1.1-7.4-1.6-6-4.2 1.5-2.6 7.3-7.8 10.9-8z"
    class="illustration-not-found-7"
  />
  <path
    d="M295.2 208V76.4s-2.7 9.5-2.7 10.2"
    class="illustration-not-found-5"
  />
  <path
    d="M249.2 214.9h100.9v80.8H249.2z"
    class="illustration-not-found-7"
  />
  <path
    d="M296.6 214.5v-4.6c0-.6-.5-1.2-1.2-1.2-.6 0-1.2.5-1.2 1.2v4.6h2.4zM305.9 203.3v.2c-.2-.3-.6-.6-1-.6-.6 0-1.2.5-1.2 1.2v12.4a3.59 3.59 0 0 1-5 3.3c-.3.4-.6 1.3.3 2.5a5.91 5.91 0 0 0 7-5.8v-5.7h2.7l-2.8-7.5z"
    class="illustration-not-found-6"
  />
  <path
    d="M295.3 75.2s2.1-7.3.2-6.6c-1.8.6-.2 6.6-.2 6.6zM295.3 75.2s-7.8-2.7-7.1-.2c.7 2.5 7.1.2 7.1.2z"
    class="illustration-not-found-5"
  />
  <path
    d="M127.6 139s-9.6-5.4-28.4-2.7c-18.8 2.7-22.4 18.2-19.3 34.3 3.1 16.1 20.9 29.8 23.6 28.6 2.7-1.2-.8-37.3 5.4-44.2 6.1-6.9 26.1-5.8 27.3-11.1 1-5.3-8.6-4.9-8.6-4.9z"
    class="illustration-not-found-2"
  />
  <path
    d="m94.1 148.6 2 12.7S84 194.2 86 198.8c2 4.6 20.2 6.2 20.2 6.2s29.7 3.6 38.4 0c8.8-3.6 4.2-14 3.3-16.9-1-2.9-6.5-26.4-6.5-26.4s2-5.5 2-8.5c0-2.9-.3-11.1-1.6-13-1.3-2-24.1-4.2-34.2-2.6-10.2 1.5-14.8 4.1-13.5 11z"
    class="illustration-not-found-8"
  />
  <path
    d="M99.3 163.2s-.3 28.3 1.3 33.9c1.6 5.5 8.1 12.1 21.8 10.4 13.7-1.6 15-14.7 15-14.7l-1-30.3-37.1.7z"
    class="illustration-not-found-3"
  />
  <circle
    cx="120.3"
    cy="183.6"
    r="2.4"
    fill="none"
    stroke="var(--ql-color-dark)"
    stroke-miterlimit="10"
    stroke-width="1.16"
  />
  <path
    d="M122.4 193.9c0 .9-.7 1.6-1.6 1.6-.9 0-1.6-.7-1.6-1.6s.7-1.6 1.6-1.6c.9-.1 1.6.7 1.6 1.6zM112.6 173.2c1 1.1 1.4 2.5.8 3-.6.6-1.9.1-3-1-1-1.1-1.4-2.5-.8-3s2-.2 3 1zM125.8 173.2c-1 1.1-1.4 2.5-.8 3 .6.6 1.9.1 3-1 1-1.1 1.4-2.5.8-3s-1.9-.2-3 1z"
    class="illustration-not-found-6"
  />
  <path
    d="M105.6 169.3s2.1-3.6 6.8-2.5M125.3 167.2s4.7-1.4 6.1 2.5"
    class="illustration-not-found-5"
  />
  <path
    d="M141 349s5.1-3.1 8-4.3c.3-.1.6-.2.8-.3 2.5-.8 9.6-.4 16.3-4.6 6.7-4.2 3.3-9.2-1.7-10.4a373 373 0 0 1-10.4-2.9l-1.3-19.6s-15 4.2-20.1 6.3c-5 2.1-2.1 31.8-1.7 34.3.5 2.3.5 4 10.1 1.5z"
    class="illustration-not-found-2"
  />
  <path
    d="M157.7 339.8c-8.8 1.7-8.8 3.3-18.4 5-4.1.7-6.8.8-8.6.7.1.9.2 1.5.2 1.8.4 2.5.4 4.2 10 1.7 0 0 5.1-3.1 8-4.3.3-.1.6-.2.8-.3 2.5-.8 9.6-.4 16.3-4.6 2.1-1.3 3.2-2.8 3.6-4.1-3 1.5-7.3 3.2-11.9 4.1z"
    class="illustration-not-found-3"
  />
  <path
    d="M161.2 329.1s-.3 22.8-1 27.7c-.7 4.9.3 11.1 7.8 11.1s22.2-4.9 27.4-5.9c5.2-1 13.7-3.3 17.3-11.4 3.6-8.1-18.2-7.2-18.2-7.2l1.3-16.6s-22.5 4.6-34.6 2.3z"
    class="illustration-not-found-2"
  />
  <path
    d="M212.7 350.6c.4-1 .5-1.8.3-2.6-1.6 2.2-4.4 5-8.7 6.8-7.8 3.3-22.5 6.8-33.6 8.5-5.1.7-8.3-.1-10.3-1.2.7 3.2 2.8 5.8 7.7 5.8 7.5 0 22.2-4.9 27.4-5.9 5.1-1 13.6-3.3 17.2-11.4z"
    class="illustration-not-found-3"
  />
  <path
    d="M194.5 343.4s1.6 5.5-2.9 9.1"
    class="illustration-not-found-4"
  />
  <path
    d="M158.9 317s-.5 9.9 0 11.9c2.1 7.5 2.8 5.8 18.4 5.4 15.6-.3 22-6.6 23.6-10.5 1.6-3.9 0-12.4-.7-15.3-.7-2.9-5.9-3.9-7.8-3.6-1.9.4-32.5 8.9-33.5 12.1z"
    class="illustration-not-found-8"
  />
  <defs>
    <path
      id="XMLID_1_"
      d="M51.4 341.8v21.9c0 1.8 1 3.4 2.5 4.2l35.2 18.2c1.3.7 2.8.7 4.1.1l51.9-19.8c1.7-.8 2.8-2.4 2.8-4.3v-26.5l-59.3 17.9-37.2-11.7z"
    />
  </defs>
  <use
    xlinkHref="#XMLID_1_"
    fill="var(--ql-color-accent1)"
    overflow="visible"
  />
  <clipPath id="XMLID_8_">
    <use xlinkHref="#XMLID_1_" overflow="visible" />
  </clipPath>
  <path
    id="XMLID_2_"
    d="m91.2 352.7-2.6.8-37.1-11.7v21.9c0 1.8 1 3.4 2.5 4.2l35.2 18.2c.6.3 1.3.5 2 .5v-33.9z"
    clip-path="url(#XMLID_8_)"
    opacity=".18"
  />
  <use
    xlinkHref="#XMLID_1_"
    fill="none"
    stroke="var(--ql-color-dark)"
    stroke-linecap="round"
    stroke-linejoin="round"
    stroke-miterlimit="10"
    stroke-width="1.16"
    overflow="visible"
  />
  <defs>
    <path
      id="XMLID_3_"
      d="M105.6 304.8 48.7 323c-.9.3-1.5 1.1-1.5 2.1v16.2c0 .9.5 1.6 1.3 2l39.5 19c.5.3 1.2.3 1.7.1l59.6-22.3c.9-.3 1.4-1.1 1.4-2.1l.1-15.2c0-1-.7-1.9-1.7-2.2l-42.4-15.8c-.3-.1-.7-.1-1.1 0z"
    />
  </defs>
  <use
    xlinkHref="#XMLID_3_"
    fill="var(--ql-color-white)"
    overflow="visible"
  />
  <clipPath id="XMLID_9_">
    <use xlinkHref="#XMLID_3_" overflow="visible" />
  </clipPath>
  <path
    d="M88 362.2c.6.3 1.2.3 1.7.1l59.6-22.3c.9-.3 1.4-1.1 1.4-2.1l.1-15.2c0-.5-.2-1-.5-1.4L88.8 344l-.8 18.2z"
    class="illustration-not-found-11"
  />
  <path
    fill="var(--ql-color-white)"
    d="M88 362.2c.6.3 1.2.3 1.7.1l59.6-22.3c.9-.3 1.4-1.1 1.4-2.1l.1-15.2c0-.5-.2-1-.5-1.4L88.8 344l-.8 18.2z"
    clip-path="url(#XMLID_9_)"
    opacity=".5"
  />
  <path
    d="M47.2 325.2v16.2c0 .9.5 1.6 1.3 2L88 362.3c.3.1.6.2.8.2v-18.4l-41.6-19.3v.4z"
    class="illustration-not-found-11"
  />
  <use
    xlinkHref="#XMLID_3_"
    fill="none"
    stroke="var(--ql-color-dark)"
    stroke-linecap="round"
    stroke-linejoin="round"
    stroke-miterlimit="10"
    stroke-width="1.16"
    overflow="visible"
  />
  <path
    d="M183.7 275s7.5 3.6 11.4 10.8c3.9 7.2 1 20.9-1.3 25.1-2.3 4.2-17.6 6.2-22.8 6.2-5.2 0-6.2-.7-6.2-.7s-16.6 3.3-27 5.2c-10.4 2-7.8-22.5-4.6-33.6 3.3-11.1 21.5-16.6 29-16.6s21.5 3.6 21.5 3.6z"
    class="illustration-not-found-2"
  />
  <path
    d="M164.8 316.4s14-4.9 19.9-17.3M178.2 309.2s6.2-2.3 12.1-8.1"
    class="illustration-not-found-4"
  />
  <path
    d="M145.3 285.8s3.9 20.5 2 29c-2 8.5-13.4 9.8-16 8.8-2.6-1-1.3-21.2-1.3-31.3-.1-10.1 10-9.5 15.3-6.5z"
    class="illustration-not-found-8"
  />
  <defs>
    <path
      id="XMLID_6_"
      d="M62.2 231s-2.3 13.4-.7 19.9c1.6 6.5 4.6 10.1 4.6 10.1s-8.1 12.1-6.5 22.2c1.6 10.1 5.9 11.4 5.9 11.4s-3.6 18.6 2.9 25.1 20.9 13.7 36.8 10.8 26.7-3.6 30-9.1c3.3-5.5 1.3-30 1.3-30s-.7-27-1.3-43.7c-.7-16.6-2.9-30-10.8-36.5-7.8-6.5-42.4 3.6-52.8 10.4-10.4 6.8-9.4 9.4-9.4 9.4z"
    />
  </defs>
  <use
    xlinkHref="#XMLID_6_"
    fill="var(--ql-color-accent1)"
    overflow="visible"
  />
  <clipPath id="XMLID_10_">
    <use xlinkHref="#XMLID_6_" overflow="visible" />
  </clipPath>
  <path
    d="M64.5 231s-2.3 13.4-.7 19.9c1.6 6.5 4.6 10.1 4.6 10.1s-8.1 12.1-6.5 22.2c1.6 10.1 5.9 11.4 5.9 11.4s-3.6 18.6 2.9 25.1 20.9 13.7 36.8 10.8c16-2.9 26.7-3.6 30-9.1 3.3-5.5 1.3-30 1.3-30s-.7-27-1.3-43.7c-.7-16.6-2.9-30-10.8-36.5-7.8-6.5-42.4 3.6-52.8 10.4-10.4 6.8-9.4 9.4-9.4 9.4z"
    clip-path="url(#XMLID_10_)"
    opacity=".3"
  />
  <use
    xlinkHref="#XMLID_6_"
    fill="none"
    stroke="var(--ql-color-dark)"
    stroke-linecap="round"
    stroke-linejoin="round"
    stroke-miterlimit="10"
    stroke-width="1.16"
    overflow="visible"
  />
  <path
    d="M66.1 261s14.7 11.4 34.9 4.9M65.4 294.6s16.6 16.3 44 .7"
    class="illustration-not-found-5"
  />
  <defs>
    <path
      id="XMLID_4_"
      d="M130.3 215s-6.2-9.4-14.7-14.7c-8.5-5.2-30.3-9.1-39.1-10.8-8.8-1.6-18.2-1-20.9 8.8-2.6 9.8-2.3 26.1.3 33.2 2.6 7.2 13.4 11.4 21.8 6.5 8.5-4.9 31.9-23.8 40.1-24.8 8.2-.8 11.8 5.4 12.5 1.8z"
    />
  </defs>
  <use
    xlinkHref="#XMLID_4_"
    fill="var(--ql-color-dark)"
    overflow="visible"
  />
  <clipPath id="XMLID_11_">
    <use xlinkHref="#XMLID_4_" overflow="visible" />
  </clipPath>
  <path
    d="M112.2 213.2c5-2.1-7.5 1.7-8.3.4-.8-1.2 8.7-7.5 10.8-8.3 2.1-.8-12 2.1-11.6 0 .4-2.1 13.7-2.5 4.6-4.6-9.1-2.1-38.9-7.5-44.7-9.5-.6-.2-1-.4-1.3-.6-2.8 1.4-5 3.9-6 7.8-2.6 9.8-2.3 26.1.3 33.2 2.3 6.2 10.7 10.2 18.4 8 3.6-2.9 6.9-6.7 12.5-10.3 11.2-7 20.3-14 25.3-16.1z"
    clip-path="url(#XMLID_11_)"
    opacity=".3"
  />
  <use
    xlinkHref="#XMLID_4_"
    fill="none"
    stroke="var(--ql-color-dark)"
    stroke-linecap="round"
    stroke-linejoin="round"
    stroke-miterlimit="10"
    stroke-width="1.16"
    overflow="visible"
  />
  <path
    d="M165.5 259.4s7.5 1 12.4 2.9c4.9 2 8.1 14 6.2 15.6-2 1.6-5.9-.3-5.9-.3s-5.5 2-9.4 2.3c-4 .3-8.2-18.3-3.3-20.5z"
    class="illustration-not-found-7"
  />
  <path
    d="M140.7 258.4s1.3 0 8.5-3.3 13-3.3 17.6 3.9c4.6 7.2 6.5 16 3.9 21.2-2.6 5.2-12.4 8.8-17.6 8.8-5.2 0-5.9-6.8-5.9-6.8s-.7-10.8-3.9-14.7c-3.3-3.9-3.9-8.1-2.6-9.1z"
    class="illustration-not-found-8"
  />
  <defs>
    <path
      id="XMLID_5_"
      d="M116.6 215c7.2-2.6 16.3-1 19.6 8.1 3.3 9.1 6.2 35.8 6.2 35.8s8.1 1 11.4 4.6c3.3 3.6 4.9 12.7 4.2 17.3-.7 4.6-12.1 13-25.1 13.4-13 .3-22.5-5.9-27-22.5-4.6-16.6-2.8-42-2.8-42s1.7-7.5 4.1-9.1"
    />
  </defs>
  <use
    xlinkHref="#XMLID_5_"
    fill="var(--ql-color-accent1)"
    overflow="visible"
  />
  <clipPath id="XMLID_12_">
    <use xlinkHref="#XMLID_5_" overflow="visible" />
  </clipPath>
  <path
    d="M158 280.9c.7-4.6-1-13.7-4.2-17.3l-.4-.4c.3 1.9.6 4.7.7 8.8.6 19.1-26.1 15.9-31.5 2.1-2.9-7.5-3.7-40.2-12.4-42.7-5-1.4-6.7 2.5-7.3 6.1-.2 9.4.1 23.8 3 34.2 4.6 16.6 14 22.8 27 22.5 13-.3 24.4-8.8 25.1-13.3z"
    clip-path="url(#XMLID_12_)"
    opacity=".3"
  />
  <use
    xlinkHref="#XMLID_5_"
    fill="none"
    stroke="var(--ql-color-dark)"
    stroke-linecap="round"
    stroke-linejoin="round"
    stroke-miterlimit="10"
    stroke-width="1.16"
    overflow="visible"
  />
  <path
    d="M142.3 259s2.5 11.9-10.5 18.4"
    class="illustration-not-found-5"
  />
  <path
    d="m261.2 264.9 13.2-31.2h7.9v31.2h3.4v6.6h-3.4v8.4h-7.1v-8.4h-14v-6.6zm14 0v-17.4l-7.3 17.4h7.3zM288.4 244.8c0-7.4 3.9-11.6 11-11.6s11 4.2 11 11.6v24c0 7.4-3.9 11.6-11 11.6s-11-4.2-11-11.6v-24zm7.3 24.5c0 3.3 1.5 4.6 3.8 4.6s3.8-1.3 3.8-4.6v-25c0-3.3-1.5-4.6-3.8-4.6s-3.8 1.3-3.8 4.6v25zM313.5 264.9l13.2-31.2h7.9v31.2h3.4v6.6h-3.4v8.4h-7.1v-8.4h-14v-6.6zm14 0v-17.4l-7.3 17.4h7.3z"
    fill="var(--ql-color-white)"
  />
</svg>